#!OML:ASF H:\Terrain\Patient Classification 1\Walking\liu\liu.ASF
:FULLY-SPECIFIED
:DEGREES
110
root 8.69978 16.7673 -13.7418 4.75137 -0.484186 1.44232
lowerback -4.56362 -0.379553 -2.96105
upperback -1.52782 -0.402862 2.15291
thorax 1.02231 -0.196789 3.861
lowerneck -21.9231 -2.2485 -10.3779
upperneck 23.0725 -2.0402 9.01255
head 11.3299 -0.696658 4.76315
rclavicle -2.13041e-014 -8.74653e-015
rhumerus -31.0433 17.1958 -89.1369
rradius 35.1094
rwrist -13.833
rhand -28.3943 -23.9723
rfingers 7.12502
rthumb -1.76676 -53.9447
lclavicle -2.13041e-014 -8.74653e-015
lhumerus -33.5713 -3.36099 89.2253
lradius 19.0222
lwrist -7.57087
lhand -5.89595 -22.9964
lfingers 7.12502
lthumb 19.9324 6.00134
rfemur -24.8995 -5.55517 21.3442
rtibia 65.9423
rfoot -10.9394 -11.4849
rtoes -14.4667
lfemur -15.8237 0.963319 -25.2979
ltibia 24.4529
lfoot -13.5889 4.10584
ltoes -1.9286
111
root 8.7105 16.7532 -13.5713 4.84934 -0.00950254 1.58072
lowerback -4.60898 -0.546838 -3.16482
upperback -1.59824 -0.616667 2.2269
thorax 0.996741 -0.301863 4.04151
lowerneck -21.9756 -2.30117 -10.4331
upperneck 23.1394 -2.07827 8.95852
head 11.37 -0.725752 4.74915
rclavicle -1.2834e-014 1.19271e-014
rhumerus -31.9842 17.4548 -89.2582
rradius 34.9895
rwrist -13.804
rhand -28.0892 -23.0681
rfingers 7.12502
rthumb -1.47211 -53.0428
lclavicle -1.2834e-014 1.19271e-014
lhumerus -32.8432 -6.05816 90.4792
lradius 20.0882
lwrist -5.2296
lhand -6.15642 -22.3048
lfingers 7.12502
lthumb 19.682 6.71878
rfemur -26.2552 -5.67255 21.465
rtibia 65.0895
rfoot -12.1362 -11.1794
rtoes -14.6283
lfemur -15.2866 0.720765 -25.4811
ltibia 24.6076
lfoot -14.0387 3.90213
ltoes -1.28105
112
root 8.71873 16.7354 -13.4043 5.02678 0.428008 1.8524
lowerback -4.68032 -0.757373 -3.56072
upperback -1.61365 -0.878267 2.26115
thorax 1.05097 -0.433346 4.28643
lowerneck -22.3098 -2.21669 -10.3571
upperneck 23.4418 -1.98306 9.02241
head 11.5371 -0.665524 4.792
rclavicle -2.12141e-015 2.70347e-014
rhumerus -32.5787 17.6966 -89.424
rradius 34.6961
rwrist -13.5292
rhand -28.0486 -22.7481
rfingers 7.12502
rthumb -1.43285 -52.7231
lclavicle -2.12141e-015 2.70347e-014
lhumerus -31.8948 -8.1492 91.2516
lradius 21.1295
lwrist -3.61907
lhand -5.96948 -21.4917
lfingers 7.12502
lthumb 19.8617 7.51342
rfemur -27.7172 -5.74542 21.4229
rtibia 64.0802
rfoot -13.0193 -10.8104
rtoes -14.8914
lfemur -14.9034 0.4075 -25.7991
ltibia 24.7897
lfoot -14.5089 3.78098
ltoes -1.93297
113
root 8.73342 16.7136 -13.2271 4.82949 0.62294 1.89806
lowerback -4.36511 -0.856929 -3.57426
upperback -1.62117 -1.01943 2.24847
thorax 0.881387 -0.50013 4.27626
lowerneck -22.5138 -2.19268 -10.235
upperneck 23.8961 -1.99279 9.01478
head 11.7497 -0.662136 4.78798
rclavicle 1.34521e-014 -2.38542e-015
rhumerus -33.4085 17.6567 -89.7291
rradius 34.3468
rwrist -13.001
rhand -28.3693 -22.8499
rfingers 7.12502
rthumb -1.74263 -52.8225
lclavicle 1.34521e-014 -2.38542e-015
lhumerus -31.0885 -9.47431 91.5623
lradius 21.9454
lwrist -3.37276
lhand -5.26536 -21.1152
lfingers 7.12502
lthumb 20.5384 7.81835
rfemur -28.5987 -5.71113 21.529
rtibia 62.8281
rfoot -13.7504 -10.3745
rtoes -14.0212
lfemur -14.0634 0.180499 -25.8995
ltibia 24.9301
lfoot -15.3186 3.90128
ltoes -3.17723
114
root 8.75095 16.6893 -13.0391 4.58187 0.777293 1.58769
lowerback -4.17407 -0.815812 -3.03492
upperback -1.61807 -0.991097 2.24087
thorax 0.766713 -0.484566 3.96616
lowerneck -22.7562 -2.29471 -10.1881
upperneck 24.3133 -2.14449 8.98966
head 11.9755 -0.730517 4.76605
rclavicle 7.49791e-015 3.18055e-015
rhumerus -34.3963 17.3546 -89.9765
rradius 34.1147
rwrist -12.4407
rhand -28.8279 -23.8652
rfingers 7.12502
rthumb -2.18548 -53.8338
lclavicle 7.49791e-015 3.18055e-015
lhumerus -30.4826 -10.7353 91.8912
lradius 22.822
lwrist -2.99092
lhand -4.56745 -21.1401
lfingers 7.12502
lthumb 21.209 7.71961
rfemur -29.2247 -5.6837 22.0224
rtibia 61.3148
rfoot -14.0205 -10.161
rtoes -13.5025
lfemur -13.0126 0.107486 -25.6201
ltibia 24.9165
lfoot -16.1031 3.88505
ltoes -2.1549
115
root 8.76988 16.6717 -12.8482 4.50577 1.06998 1.5603
lowerback -4.27614 -0.936071 -2.82617
upperback -1.55718 -1.15747 2.21939
thorax 0.89741 -0.571705 3.81523
lowerneck -22.6896 -2.28792 -10.1892
upperneck 24.276 -2.13149 8.96226
head 11.9461 -0.729137 4.75528
rclavicle -4.11236e-015 -1.74931e-014
rhumerus -35.1062 17.2362 -90.1775
rradius 33.6914
rwrist -11.8215
rhand -28.5573 -24.0377
rfingers 7.12502
rthumb -1.92417 -54.0087
lclavicle -4.11236e-015 -1.74931e-014
lhumerus -29.9056 -12.9932 92.5199
lradius 23.796
lwrist -1.45888
lhand -8.40097 -23.0022
lfingers 7.12502
lthumb 17.523 6.22806
rfemur -30.0257 -5.76796 22.1802
rtibia 59.6226
rfoot -14.1843 -10.2418
rtoes -14.8921
lfemur -12.0652 -0.0139278 -25.6624
ltibia 24.7369
lfoot -16.7682 3.76938
ltoes -1.27818
116
root 8.79121 16.6659 -12.6535 4.3447 1.20903 1.96043
lowerback -4.25578 -1.07058 -3.11266
upperback -1.41231 -1.3247 2.12392
thorax 1.05362 -0.660655 3.86832
lowerneck -22.5302 -2.2747 -10.3342
upperneck 24.0858 -2.09834 9.07175
head 11.8404 -0.71411 4.81817
rclavicle 1.52629e-014 -7.95139e-015
rhumerus -35.755 17.1664 -90.322
rradius 33.1604
rwrist -11.287
rhand -27.9147 -22.3172
rfingers 7.12502
rthumb -1.30352 -52.2929
lclavicle 1.52629e-014 -7.95139e-015
lhumerus -29.2002 -16.0002 93.167
lradius 24.748
lwrist 0.241395
lhand -17.7024 -27.836
lfingers 7.12502
lthumb 8.55754 1.97054
rfemur -30.7231 -5.60848 21.6793
rtibia 57.7842
rfoot -15.1529 -9.99859
rtoes -15.9005
lfemur -10.9547 -0.262956 -26.1986
ltibia 24.4402
lfoot -17.5103 3.78655
ltoes -1.65991
